<svg xmlns="http://www.w3.org/2000/svg" width="24" height="24">
    <rect x="5.857" y="4.129" width="13.404" height="16.595" fill="#ffffff">
    </rect>
    <path fill="#543B79"
        d="M 22.054 0.07 L 2.054 0.07 C 0.95 0.07 0.054 0.965 0.054 2.07 L 0.054 22.07 C 0.054 23.174 0.95 24.07 2.054 24.07 L 22.054 24.07 C 23.159 24.07 24.054 23.174 24.054 22.07 L 24.054 2.07 C 24.054 0.965 23.159 0.07 22.054 0.07 Z M 17.867 16.923 L 17.867 16.925 C 17.667 17.407 17.35 17.832 16.944 18.159 C 16.524 18.499 15.992 18.779 15.337 18.979 C 14.683 19.182 13.905 19.284 13.004 19.284 L 6.572 19.284 L 6.572 5.284 L 13.374 5.284 C 14.632 5.284 15.64 5.567 16.394 6.144 C 17.154 6.724 17.532 7.588 17.532 8.754 C 17.532 9.459 17.36 10.064 17.014 10.564 C 16.67 11.061 16.174 11.45 15.534 11.72 L 15.534 11.766 C 16.388 11.946 17.049 12.351 17.484 12.981 C 17.919 13.611 18.142 14.407 18.142 15.368 C 18.142 15.906 18.038 16.418 17.842 16.896 L 17.867 16.923 Z">
    </path>
    <path fill="#543B79"
        d="M 15.091 13.475 C 14.681 13.1 14.105 12.917 13.361 12.917 L 9.039 12.917 L 9.039 17.285 L 13.373 17.285 C 14.113 17.285 14.693 17.093 15.103 16.705 C 15.513 16.32 15.723 15.771 15.723 15.065 C 15.716 14.375 15.513 13.841 15.103 13.475 L 15.091 13.475 Z M 14.487 10.652 L 14.491 10.652 C 14.887 10.316 15.081 9.835 15.081 9.208 C 15.081 8.504 14.906 8.004 14.551 7.718 C 14.199 7.433 13.691 7.285 13.023 7.285 L 9.023 7.285 L 9.023 11.148 L 13.023 11.148 C 13.606 11.148 14.103 10.978 14.487 10.652 Z">
    </path>
</svg>