<svg xmlns="http://www.w3.org/2000/svg" data-name="Layer 1" viewBox="0 0 64 64"><path fill="#80d8ff" d="M53 17H41V5l12 12zM47 45v6h-8v-6h8zM47 33v6H35v-6h12zM47 21v6H17v-6h30z"/><path fill="#fff" d="M25 45h-8v6h8Zm11 0h-8v6h8Zm3 0v6h8v-6h-8Zm4-3v-3h4v-6h-6v-6h6v-6H17v6h6v6h-6v6h4v3h22Zm10-25v42H11V5h30v12Z"/><path fill="#fff" d="M35 39h8v3H21v-3h10v-6h-8v-6h18v6h-6v6z"/><path fill="#80d8ff" d="M36 45v6h-8v-6h8zM31 33v6H17v-6h14zM25 45v6h-8v-6h8z"/><path fill="#0091ea" d="M53 60H11a1 1 0 0 1-1-1V5a1 1 0 0 1 1-1h30a1 1 0 0 1 .71.29l12 12A1 1 0 0 1 54 17v42a1 1 0 0 1-1 1Zm-41-2h40V17.41L40.59 6H12Z"/><path fill="#0091ea" d="M53 18H41a1 1 0 0 1-1-1V5a1 1 0 0 1 2 0v11h11a1 1 0 0 1 0 2zm-6 10H17a1 1 0 0 1-1-1v-6a1 1 0 0 1 1-1h30a1 1 0 0 1 1 1v6a1 1 0 0 1-1 1zm-29-2h28v-4H18zm13 14H17a1 1 0 0 1-1-1v-6a1 1 0 0 1 1-1h14a1 1 0 0 1 1 1v6a1 1 0 0 1-1 1zm-13-2h12v-4H18zm7 14h-8a1 1 0 0 1-1-1v-6a1 1 0 0 1 1-1h8a1 1 0 0 1 1 1v6a1 1 0 0 1-1 1zm-7-2h6v-4h-6zm18 2h-8a1 1 0 0 1-1-1v-6a1 1 0 0 1 1-1h8a1 1 0 0 1 1 1v6a1 1 0 0 1-1 1zm-7-2h6v-4h-6zm18 2h-8a1 1 0 0 1-1-1v-6a1 1 0 0 1 1-1h8a1 1 0 0 1 1 1v6a1 1 0 0 1-1 1zm-7-2h6v-4h-6zm7-10H35a1 1 0 0 1-1-1v-6a1 1 0 0 1 1-1h12a1 1 0 0 1 1 1v6a1 1 0 0 1-1 1zm-11-2h10v-4H36z"/><path fill="#0091ea" d="M23 34a1 1 0 0 1-1-1v-6a1 1 0 0 1 2 0v6a1 1 0 0 1-1 1zm-2 12a1 1 0 0 1-1-1v-6a1 1 0 0 1 2 0v6a1 1 0 0 1-1 1zm22 0a1 1 0 0 1-1-1v-6a1 1 0 0 1 2 0v6a1 1 0 0 1-1 1z"/><path fill="#0091ea" d="M43 43H21a1 1 0 0 1 0-2h22a1 1 0 0 1 0 2Z"/><path fill="#0091ea" d="M32 46a1 1 0 0 1-1-1v-3a1 1 0 0 1 2 0v3a1 1 0 0 1-1 1zm9-12a1 1 0 0 1-1-1v-6a1 1 0 0 1 2 0v6a1 1 0 0 1-1 1z"/></svg>